#N canvas 424 214 816 767 12;
#N canvas 0 50 450 250 (subpatch) 0;
#X array flute-array 122772 float 2;
#X coords 0 1 122772 -1 200 140 1;
#X restore 349 24 graph;
#X obj 59 220 soundfiler;
#X msg 58 188 read -resize flute-G4-edit.wav flute-array;
#X obj 114 549 out1~;
#X obj 248 496 tabread4~ flute-array;
#X floatatom 258 298 5 0 0 0 - - -;
#X obj 291 602 tabwrite~ out-array;
#N canvas 0 50 450 250 (subpatch) 0;
#X array out-array 100 float 2;
#X coords 0 1 100 -1 200 140 1;
#X restore 563 583 graph;
#X obj 325 561 bng 15 250 50 0 empty empty empty 17 7 0 10 -262144
-1 -1;
#N canvas 0 50 450 250 (subpatch) 0;
#X array transpose-array 12 float 3;
#A 0 5.40001 3.50001 5.15 4.90002 3.70001 3.05001 3.45001 4.15001 4.95002
5.45002 3.25001 0.750001;
#X coords 0 7 12 0 200 140 1 0 0;
#X restore 570 30 graph;
#X obj 394 388 phasor~;
#X obj 543 338 tabread~ transpose-array;
#X obj 540 432 snapshot~;
#X floatatom 579 477 16 0 0 0 - - -;
#X msg 222 262 set 10000;
#X obj 332 449 +~;
#X obj 377 324 *~;
#X floatatom 504 261 5 0 0 0 - - -;
#X msg 502 240 set 12000;
#X obj 141 65 bng 15 250 50 0 empty empty empty 17 7 0 10 -262144 -1
-1;
#X obj 709 389 metro 100;
#X obj 551 312 +~ 1;
#X obj 570 289 *~ 12;
#X obj 383 425 *~ 40000;
#X obj 602 219 phasor~ 0.25;
#X text 58 654 Hit bang at top \, then turn lvl up to hear sound.;
#X connect 2 0 1 0;
#X connect 4 0 6 0;
#X connect 4 0 3 0;
#X connect 5 0 15 0;
#X connect 8 0 6 0;
#X connect 10 0 23 0;
#X connect 11 0 10 0;
#X connect 12 0 13 0;
#X connect 14 0 5 0;
#X connect 15 0 4 0;
#X connect 15 0 12 0;
#X connect 18 0 17 0;
#X connect 19 0 14 0;
#X connect 19 0 2 0;
#X connect 19 0 18 0;
#X connect 19 0 20 0;
#X connect 20 0 12 0;
#X connect 21 0 11 0;
#X connect 22 0 21 0;
#X connect 23 0 15 1;
#X connect 24 0 22 0;
