#N canvas 876 263 732 767 12;
#N canvas 0 50 450 250 (subpatch) 0;
#X array flute-array 114091 float 2;
#X coords 0 1 114091 -1 200 140 1 0 0;
#X restore 450 21 graph;
#X obj 24 86 soundfiler;
#X obj 151 455 out1~;
#X obj 66 147 phasor~;
#X floatatom 118 96 5 0 0 0 - - -;
#X obj 134 278 tabread4~ flute-array;
#X floatatom 301 245 5 0 0 0 - - -;
#X obj 273 360 tabwrite~ out-array;
#N canvas 0 50 450 250 (subpatch) 0;
#X array out-array 100 float 2;
#X coords 0 1 100 -1 200 140 1;
#X restore 291 434 graph;
#X obj 275 324 bng 15 250 50 0 empty empty empty 17 7 0 10 -262144
-1 -1;
#N canvas 0 50 450 250 (subpatch) 0;
#X array transpose-array 12 float 3;
#A 0 11.3143 10.0286 9.08577 8.5715 7.80009 7.11439 6.17155 5.48585
4.20016 3.17162 1.80022 0.085968;
#X coords 0 12 12 0 200 140 1 0 0;
#X restore 458 236 graph;
#X text 116 179 phasor generates between 0 and 1 We want between 0
and a portion of the array size.;
#X msg 24 30 read -resize 154330__carlos-vaquero__bassoon-c-2-tenuto-vibrato.wav
flute-array;
#X obj 41 185 *~ 120000;
#X obj 83 231 +~ 1000;
#X connect 3 0 13 0;
#X connect 4 0 3 0;
#X connect 5 0 7 0;
#X connect 5 0 2 0;
#X connect 6 0 5 1;
#X connect 9 0 7 0;
#X connect 12 0 1 0;
#X connect 13 0 14 0;
#X connect 14 0 5 0;
