#N canvas 870 269 880 395 12;
#X obj 265 245 out1~;
#N canvas 0 50 450 250 (subpatch) 0;
#X array src-array 190084 float 2;
#X coords 0 1 190084 -1 200 140 1 0 0;
#X restore 366 28 graph;
#N canvas 0 50 450 250 (subpatch) 0;
#X array ctrl-array 16 float 3;
#A 0 12 14 16 19 17 9 21 19 4 24 23 24 20 17 0 0;
#X coords 0 24 16 0 200 140 1 0 0;
#X restore 602 29 graph;
#X obj 193 37 bng 15 250 50 0 empty empty empty 17 7 0 10 -262144 -1
-1;
#X obj 254 201 catch~ sum;
#X obj 193 57 send trigger;
#X obj 545 204 bng 15 250 50 0 empty empty empty 17 7 0 10 -262144
-1 -1;
#X obj 522 264 send ctrl-array;
#X msg 540 232 0 12 14 16 19 17 9 21 19 4 24 23 24 20 17;
#X obj 50 39 partial -48 1;
#X obj 54 77 partial -36 0.67;
#X obj 57 116 partial -29 0.67;
#X obj 53 158 partial -24 0.67;
#X obj 56 206 partial -17 0.5;
#X obj 43 243 partial -12 0.5;
#X obj 59 276 partial -5 0;
#X obj 66 318 partial 0 0.5;
#X connect 3 0 5 0;
#X connect 4 0 0 0;
#X connect 6 0 8 0;
#X connect 8 0 7 0;
