#N canvas 140 210 859 794 12;
#X obj 61 156 subpatch;
#X obj 307 307 out1~;
#X text 114 101 Fade out;
#X obj 138 124 bng 15 250 50 0 empty empty empty 17 7 0 10 -262144
-1 -1;
#X text 68 73 Fade in (milliseconds);
#X text 335 110 Fade out;
#X obj 325 116 bng 15 250 50 0 empty empty empty 17 7 0 10 -262144
-1 -1;
#X text 255 73 Fade in (milliseconds);
#X obj 248 156 subpatch;
#X msg 63 98 500;
#N canvas 0 50 450 250 (subpatch) 0;
#X array src-array 190084 float 2;
#X coords 0 1 190084 -1 200 140 1 0 0;
#X restore 30 628 graph;
#N canvas 0 50 450 250 (subpatch) 0;
#X array ctrl-array 8 float 3;
#A 0 0 12 0 12 0 12 13 12;
#X coords 0 24 8 0 200 140 1 0 0;
#X restore 642 628 graph;
#X msg 186 115 -48;
#X msg 417 120 -47;
#X msg 250 98 500;
#X text 565 108 Fade out;
#X obj 555 114 bng 15 250 50 0 empty empty empty 17 7 0 10 -262144
-1 -1;
#X text 485 71 Fade in (milliseconds);
#X obj 478 154 subpatch;
#X msg 480 96 500;
#X text 695 217 Fade out;
#X obj 685 223 bng 15 250 50 0 empty empty empty 17 7 0 10 -262144
-1 -1;
#X text 615 180 Fade in (milliseconds);
#X obj 608 263 subpatch;
#X msg 610 205 500;
#X text 689 349 Fade out;
#X obj 679 355 bng 15 250 50 0 empty empty empty 17 7 0 10 -262144
-1 -1;
#X text 609 312 Fade in (milliseconds);
#X obj 602 395 subpatch;
#X msg 604 337 500;
#X text 556 473 Fade out;
#X obj 546 479 bng 15 250 50 0 empty empty empty 17 7 0 10 -262144
-1 -1;
#X text 476 436 Fade in (milliseconds);
#X obj 469 519 subpatch;
#X msg 471 461 500;
#X text 217 471 Fade out;
#X obj 207 477 bng 15 250 50 0 empty empty empty 17 7 0 10 -262144
-1 -1;
#X text 137 434 Fade in (milliseconds);
#X obj 130 517 subpatch;
#X msg 132 459 500;
#X text 117 282 Fade out;
#X obj 107 288 bng 15 250 50 0 empty empty empty 17 7 0 10 -262144
-1 -1;
#X text 37 245 Fade in (milliseconds);
#X obj 32 328 subpatch;
#X msg 199 292 -47;
#X msg 57 367 500;
#X msg 647 118 -46;
#X msg 777 227 -45;
#X msg 771 359 -44;
#X msg 638 483 -43;
#X msg 58 492 -42;
#X obj 31 554 bng 15 250 50 0 empty empty empty 17 7 0 10 -262144 -1
-1;
#X obj 573 560 bng 15 250 50 0 empty empty empty 17 7 0 10 -262144
-1 -1;
#X obj 351 570 bng 15 250 50 0 empty empty empty 17 7 0 10 -262144
-1 -1;
#X connect 0 0 1 0;
#X connect 3 0 0 1;
#X connect 6 0 8 1;
#X connect 8 0 1 0;
#X connect 9 0 0 0;
#X connect 12 0 0 2;
#X connect 13 0 8 2;
#X connect 14 0 8 0;
#X connect 16 0 18 1;
#X connect 18 0 1 0;
#X connect 19 0 18 0;
#X connect 21 0 23 1;
#X connect 23 0 1 0;
#X connect 24 0 23 0;
#X connect 26 0 28 1;
#X connect 28 0 1 0;
#X connect 29 0 28 0;
#X connect 31 0 33 1;
#X connect 33 0 1 0;
#X connect 34 0 33 0;
#X connect 36 0 38 1;
#X connect 38 0 1 0;
#X connect 39 0 38 0;
#X connect 41 0 43 1;
#X connect 43 0 1 0;
#X connect 44 0 43 2;
#X connect 45 0 43 0;
#X connect 46 0 18 2;
#X connect 47 0 23 2;
#X connect 48 0 28 2;
#X connect 49 0 33 2;
#X connect 50 0 38 2;
#X connect 51 0 39 0;
#X connect 51 0 50 0;
#X connect 51 0 45 0;
#X connect 51 0 44 0;
#X connect 51 0 9 0;
#X connect 51 0 12 0;
#X connect 52 0 34 0;
#X connect 52 0 49 0;
#X connect 52 0 29 0;
#X connect 52 0 48 0;
#X connect 52 0 24 0;
#X connect 52 0 47 0;
#X connect 52 0 19 0;
#X connect 52 0 46 0;
#X connect 52 0 14 0;
#X connect 52 0 13 0;
#X connect 53 0 51 0;
#X connect 53 0 52 0;
