#N canvas 138 168 859 794 12;
#X obj 307 307 out1~;
#X text 114 101 Fade out;
#X obj 138 124 bng 15 250 50 0 empty empty empty 17 7 0 10 -262144
-1 -1;
#X text 68 73 Fade in (milliseconds);
#X text 335 110 Fade out;
#X obj 325 116 bng 15 250 50 0 empty empty empty 17 7 0 10 -262144
-1 -1;
#X text 255 73 Fade in (milliseconds);
#X msg 63 98 500;
#N canvas 0 50 450 250 (subpatch) 0;
#X array src-array 190084 float 2;
#X coords 0 1 190084 -1 200 140 1 0 0;
#X restore 30 628 graph;
#N canvas 0 50 450 250 (subpatch) 0;
#X array ctrl-array 8 float 3;
#A 0 0 12 0 12 0 12 13 12;
#X coords 0 24 8 0 200 140 1 0 0;
#X restore 642 628 graph;
#X msg 186 115 -48;
#X msg 250 98 500;
#X text 565 108 Fade out;
#X obj 555 114 bng 15 250 50 0 empty empty empty 17 7 0 10 -262144
-1 -1;
#X text 485 71 Fade in (milliseconds);
#X msg 480 96 500;
#X text 695 217 Fade out;
#X obj 685 223 bng 15 250 50 0 empty empty empty 17 7 0 10 -262144
-1 -1;
#X text 615 180 Fade in (milliseconds);
#X msg 610 205 500;
#X text 689 349 Fade out;
#X obj 679 355 bng 15 250 50 0 empty empty empty 17 7 0 10 -262144
-1 -1;
#X text 609 312 Fade in (milliseconds);
#X msg 604 337 500;
#X text 556 473 Fade out;
#X obj 546 479 bng 15 250 50 0 empty empty empty 17 7 0 10 -262144
-1 -1;
#X text 476 436 Fade in (milliseconds);
#X msg 471 461 500;
#X text 217 471 Fade out;
#X obj 207 477 bng 15 250 50 0 empty empty empty 17 7 0 10 -262144
-1 -1;
#X text 137 434 Fade in (milliseconds);
#X msg 132 459 500;
#X text 117 282 Fade out;
#X obj 107 288 bng 15 250 50 0 empty empty empty 17 7 0 10 -262144
-1 -1;
#X text 37 245 Fade in (milliseconds);
#X msg 57 367 500;
#X obj 31 554 bng 15 250 50 0 empty empty empty 17 7 0 10 -262144 -1
-1;
#X obj 573 560 bng 15 250 50 0 empty empty empty 17 7 0 10 -262144
-1 -1;
#X obj 351 570 bng 15 250 50 0 empty empty empty 17 7 0 10 -262144
-1 -1;
#X msg 417 120 -24;
#X msg 777 227 -12;
#X msg 638 483 0;
#X msg 199 292 12;
#X msg 58 492 7;
#X msg 771 359 -5;
#X msg 647 118 -17;
#X obj 61 156 partial;
#X obj 248 156 partial;
#X obj 478 154 partial;
#X obj 608 263 partial;
#X obj 602 395 partial;
#X obj 469 519 partial;
#X obj 130 517 partial;
#X obj 32 328 partial;
#X connect 2 0 46 1;
#X connect 5 0 47 1;
#X connect 7 0 46 0;
#X connect 10 0 46 2;
#X connect 11 0 47 0;
#X connect 13 0 48 1;
#X connect 15 0 48 0;
#X connect 17 0 49 1;
#X connect 19 0 49 0;
#X connect 21 0 50 1;
#X connect 23 0 50 0;
#X connect 25 0 51 1;
#X connect 27 0 51 0;
#X connect 29 0 52 1;
#X connect 31 0 52 0;
#X connect 33 0 53 1;
#X connect 35 0 53 0;
#X connect 36 0 31 0;
#X connect 36 0 43 0;
#X connect 36 0 35 0;
#X connect 36 0 42 0;
#X connect 36 0 7 0;
#X connect 36 0 10 0;
#X connect 37 0 27 0;
#X connect 37 0 41 0;
#X connect 37 0 23 0;
#X connect 37 0 44 0;
#X connect 37 0 19 0;
#X connect 37 0 40 0;
#X connect 37 0 15 0;
#X connect 37 0 45 0;
#X connect 37 0 11 0;
#X connect 37 0 39 0;
#X connect 38 0 36 0;
#X connect 38 0 37 0;
#X connect 39 0 47 2;
#X connect 40 0 49 2;
#X connect 41 0 51 2;
#X connect 42 0 53 2;
#X connect 43 0 52 2;
#X connect 44 0 50 2;
#X connect 45 0 48 2;
#X connect 46 0 0 0;
#X connect 47 0 0 0;
#X connect 48 0 0 0;
#X connect 49 0 0 0;
#X connect 50 0 0 0;
#X connect 51 0 0 0;
#X connect 52 0 0 0;
#X connect 53 0 0 0;
