#N canvas 847 233 1050 739 12;
#X obj 727 316 soundfiler;
#X obj 642 208 bng 15 250 50 0 empty empty empty 17 7 0 10 -262144
-1 -1;
#X obj 122 606 tabread4~ src-array;
#X obj 402 270 tabread ctrl-array;
#X obj 177 109 bng 15 250 50 0 empty empty empty 17 7 0 10 -262144
-1 -1;
#X obj 67 123 value index;
#X obj 67 80 bng 15 250 50 0 empty empty empty 17 7 0 10 -262144 -1
-1;
#X floatatom 269 248 5 0 0 0 - - -;
#X text 205 80 Index ticker;
#X floatatom 376 333 5 0 0 0 - - -;
#X floatatom 142 319 5 0 0 0 - - -;
#X obj 96 292 / 12;
#X floatatom 185 371 5 0 0 0 - - -;
#X floatatom 98 438 5 0 0 0 - - -;
#X obj 60 396 expr pow(2 \, $f1);
#X obj 121 521 phasor~;
#X obj 111 489 sig~;
#X obj 337 78 bng 15 250 50 0 empty empty empty 17 7 0 10 -262144 -1
-1;
#X msg 728 216 read -resize flute-G4-edit.wav src-array;
#X obj 125 577 +~ 0;
#X obj 176 632 *~;
#X floatatom 365 696 5 0 0 0 - - -;
#X obj 557 656 snapshot~;
#X obj 622 585 metro 100;
#X obj 751 375 bng 15 250 50 0 empty empty empty 17 7 0 10 -262144
-1 -1;
#X floatatom 379 622 5 0 0 0 - - -;
#X obj 153 686 outlet~;
#X obj 36 598 snapshot~;
#X floatatom 41 642 5 0 0 0 - - -;
#X obj 15 456 bng 15 250 50 0 empty empty empty 17 7 0 10 -262144 -1
-1;
#X obj 12 496 metro 100;
#X obj 235 32 loadbang;
#X floatatom 184 133 5 0 0 0 - - -;
#X floatatom 94 255 5 0 0 0 - - -;
#X msg 197 235 set \$1;
#X obj 53 172 bng 15 250 50 0 empty empty empty 17 7 0 10 -262144 -1
-1;
#X obj 27 195 delay 1 180 permin;
#X msg 741 256 read -resize bagpipe-c.wav src-array;
#X obj 123 550 *~;
#X obj 140 460 * 1;
#X floatatom 836 349 10 0 0 0 - - -;
#X obj 223 689 throw~ sum;
#X obj 404 454 receive trigger;
#X obj 386 305 + \$1;
#X text 680 20 \$1: Relative pitch \$2: Amplification;
#X obj 179 165 expr ($i1 + 1) % 12;
#X obj 377 580 line 1 200;
#X obj 409 493 bng 15 250 50 0 empty empty empty 17 7 0 10 -262144
-1 -1;
#X text 475 533 Why??;
#X obj 416 532 expr \$2;
#X connect 0 0 38 1;
#X connect 0 0 40 0;
#X connect 1 0 37 0;
#X connect 2 0 20 0;
#X connect 3 0 43 0;
#X connect 4 0 32 0;
#X connect 6 0 5 0;
#X connect 11 0 10 0;
#X connect 11 0 14 0;
#X connect 13 0 39 0;
#X connect 14 0 13 0;
#X connect 15 0 38 0;
#X connect 16 0 15 0;
#X connect 17 0 6 0;
#X connect 17 0 4 0;
#X connect 17 0 1 0;
#X connect 17 0 24 0;
#X connect 19 0 2 0;
#X connect 19 0 27 0;
#X connect 20 0 22 0;
#X connect 20 0 26 0;
#X connect 20 0 41 0;
#X connect 22 0 21 0;
#X connect 23 0 22 0;
#X connect 24 0 23 0;
#X connect 27 0 28 0;
#X connect 29 0 30 0;
#X connect 30 0 27 0;
#X connect 31 0 17 0;
#X connect 32 0 45 0;
#X connect 33 0 45 0;
#X connect 34 0 33 0;
#X connect 35 0 36 0;
#X connect 36 0 33 0;
#X connect 37 0 0 0;
#X connect 38 0 19 0;
#X connect 39 0 16 0;
#X connect 42 0 47 0;
#X connect 43 0 9 0;
#X connect 43 0 11 0;
#X connect 45 0 7 0;
#X connect 45 0 3 0;
#X connect 45 0 34 0;
#X connect 45 0 35 0;
#X connect 46 0 20 1;
#X connect 46 0 25 0;
#X connect 47 0 49 0;
#X connect 49 0 46 0;
