#N canvas 1233 391 687 538 12;
#X obj 52 181 mtof;
#X floatatom 32 219 5 0 0 0 - - -;
#X obj 49 252 osc~;
#X obj 116 447 outlet~;
#X obj 78 38 receive start-dist-voice;
#X floatatom 70 125 5 0 0 0 - - -;
#X obj 94 93 f \$1;
#X text 140 66 If you try to just send a message with \$1 \, it will
send what's incoming from its inlet instead of the abstraction's \$1.
;
#X obj 58 333 cos~;
#X obj 55 299 +~ 0.1;
#X msg 150 280 0;
#X msg 150 258 0.1;
#X msg 150 302 0.25;
#X text 149 238 symmetry;
#X text 195 278 even;
#X text 203 301 odd;
#X text 185 257 mixed;
#X text 195 127 \$1: Carrier freq \, \$2: modulation freq \, \$3: mod.
index;
#X obj 21 146 f \$2;
#X obj 288 197 mtof;
#X floatatom 268 235 5 0 0 0 - - -;
#X obj 285 268 osc~;
#X obj 11 334 f \$3;
#X obj 46 362 *~;
#X obj 127 389 +~;
#X obj 127 413 cos~;
#X connect 0 0 1 0;
#X connect 1 0 2 0;
#X connect 2 0 9 0;
#X connect 4 0 6 0;
#X connect 4 0 18 0;
#X connect 5 0 19 0;
#X connect 6 0 5 0;
#X connect 8 0 23 1;
#X connect 9 0 8 0;
#X connect 10 0 9 1;
#X connect 11 0 9 1;
#X connect 12 0 9 1;
#X connect 18 0 0 0;
#X connect 19 0 20 0;
#X connect 20 0 21 0;
#X connect 21 0 24 1;
#X connect 22 0 23 0;
#X connect 23 0 24 0;
#X connect 24 0 25 0;
#X connect 25 0 3 0;
