#N canvas 964 300 519 452 12;
#X obj 127 125 mtof;
#X floatatom 107 163 5 0 0 0 - - -;
#X obj 112 199 osc~;
#X obj 109 311 outlet~;
#X obj 78 38 receive start-dist-voice;
#X floatatom 70 125 5 0 0 0 - - -;
#X obj 94 93 f \$1;
#X text 140 66 If you try to just send a message with \$1 \, it will
send what's incoming from its inlet instead of the abstraction's \$1.
;
#X obj 110 270 cos~;
#X obj 107 236 +~ 0.1;
#X msg 202 217 0;
#X msg 202 195 0.1;
#X msg 202 239 0.25;
#X text 201 175 symmetry;
#X text 247 215 even;
#X text 255 238 odd;
#X text 237 194 mixed;
#X connect 0 0 1 0;
#X connect 1 0 2 0;
#X connect 2 0 9 0;
#X connect 4 0 6 0;
#X connect 6 0 5 0;
#X connect 6 0 0 0;
#X connect 8 0 3 0;
#X connect 9 0 8 0;
#X connect 10 0 9 1;
#X connect 11 0 9 1;
#X connect 12 0 9 1;
