#N struct line-label float x float y float z symbol label;
#N canvas 135 263 1266 564 12;
#X obj 52 181 mtof;
#X floatatom 32 219 5 0 0 0 - - -;
#X obj 49 245 osc~;
#X obj 205 472 outlet~;
#X obj 78 38 receive start-dist-voice;
#X floatatom 70 125 5 0 0 0 - - -;
#X obj 94 93 f \$1;
#X text 140 66 If you try to just send a message with \$1 \, it will
send what's incoming from its inlet instead of the abstraction's \$1.
;
#X obj 58 333 cos~;
#X obj 55 299 +~ 0.1;
#X msg 150 280 0;
#X msg 150 258 0.1;
#X msg 150 302 0.25;
#X text 149 238 symmetry;
#X text 195 278 even;
#X text 203 301 odd;
#X text 185 257 mixed;
#X obj 21 146 f \$2;
#X obj 288 197 mtof;
#X floatatom 268 235 5 0 0 0 - - -;
#X obj 285 268 osc~;
#X obj 127 389 +~;
#X obj 390 265 spectrum~;
#X obj 641 21 receive mod-index;
#X floatatom 651 54 5 0 0 0 - - -;
#X obj 69 275 *~;
#X obj 663 190 line~;
#X obj 643 82 / 10;
#X text 195 127 \$1: Carrier freq \, \$2: modulation freq;
#X obj 658 217 snapshot~;
#X floatatom 658 241 5 0 0 0 - - -;
#X msg 627 157 \$1 1000;
#X floatatom 740 116 5 0 0 0 - - -;
#X obj 579 184 print;
#X connect 0 0 1 0;
#X connect 1 0 2 0;
#X connect 2 0 25 0;
#X connect 4 0 6 0;
#X connect 4 0 17 0;
#X connect 5 0 18 0;
#X connect 6 0 5 0;
#X connect 8 0 21 0;
#X connect 9 0 8 0;
#X connect 10 0 9 1;
#X connect 11 0 9 1;
#X connect 12 0 9 1;
#X connect 17 0 0 0;
#X connect 18 0 19 0;
#X connect 19 0 20 0;
#X connect 20 0 21 1;
#X connect 21 0 3 0;
#X connect 23 0 24 0;
#X connect 24 0 27 0;
#X connect 25 0 9 0;
#X connect 26 0 25 1;
#X connect 26 0 29 0;
#X connect 27 0 31 0;
#X connect 27 0 32 0;
#X connect 29 0 30 0;
#X connect 31 0 26 0;
#X connect 31 0 33 0;
