#N canvas 403 296 592 470 12;
#X msg 132 77 60;
#X obj 129 120 mtof;
#X floatatom 107 163 5 0 0 0 - - -;
#X obj 107 202 osc~;
#X obj 107 268 out1~;
#X connect 0 0 1 0;
#X connect 1 0 2 0;
#X connect 2 0 3 0;
#X connect 3 0 4 0;
