#N struct line-label float x float y float z symbol label;
#N canvas 51 324 592 470 12;
#X obj 107 264 out1~;
#X obj 152 60 send start-dist-voice;
#X obj 146 33 bng 15 250 50 0 empty empty empty 17 7 0 10 -262144 -1
-1;
#X floatatom 390 39 5 0 0 0 - - -;
#X obj 394 81 send mod-index \$1;
#X text 390 22 Modulation index (max 10);
#X obj 142 131 distorted-voice 52 50;
#X connect 2 0 1 0;
#X connect 2 0 4 0;
#X connect 3 0 4 0;
#X connect 6 0 0 0;
