#N canvas 371 339 996 680 16;
#X obj 355 508 t b;
#X obj 355 450 f;
#X obj 355 535 f;
#X msg 456 550 0;
#X obj 355 480 moses 1;
#X obj 456 522 t b f;
#X obj 455 455 moses 1;
#X obj 18 185 inlet~;
#X msg 191 197 \; pd dsp 1;
#X obj 113 402 line~;
#X obj 54 436 *~;
#X obj 54 466 dac~;
#X floatatom 33 48 3 0 100 0 - #0-lvl-set #0-lvl;
#X obj 33 73 bng 15 250 50 0 \$0-mute \$0-mute-set empty -38 7 0 12
-262144 -1 -1;
#X obj 18 213 hip~ 3;
#X obj 33 103 hsl 20 12 1 9 0 0 \$0-pan \$0-pan-set empty -2 -8 0 10
-262144 -1 -1 950 1;
#X obj 576 28 r \$0-lvl;
#X msg 576 55 set \$1;
#X obj 576 83 s \$0-lvl-set;
#X obj 60 103 bng 12 250 50 0 \$0-ctr-pan \$0-ctr-pan-set empty -38
7 0 12 -262144 -1 -1;
#X obj 95 32 vu 10 80 \$0-vu empty -1 -8 0 10 -66577 -1 0 0;
#X obj 605 591 s \$0-vu;
#X obj 211 32 inlet;
#X obj 441 21 inlet;
#X msg 704 55 set \$1;
#X obj 704 28 r \$0-pan;
#X obj 704 83 s \$0-pan-set;
#X obj 117 50 r \$0-lvl;
#X obj 117 82 f;
#X obj 441 49 f;
#X obj 333 23 r \$0-pan;
#X obj 113 354 pack 0 30, f 5;
#X text 50 68 mute;
#X text 34 82 pan;
#X obj 668 119 r \$0-ctr-pan;
#X obj 333 50 f;
#X floatatom 333 133 5 0 0 0 - - -;
#X obj 333 77 - 5;
#X obj 333 104 * 0.25;
#X obj 454 426 r \$0-lvl;
#X obj 355 561 s \$0-lvl;
#X obj 355 423 r \$0-mute;
#X obj 669 176 s \$0-pan;
#X obj 116 139 expr pow($f1*0.01 \, 4);
#X obj 117 109 max 0;
#X obj 348 189 expr 1.5*$f1-0.5*($f1*$f1*$f1);
#X obj 333 161 clip -1 1;
#X obj 528 249 expr 0.5*($f1+1);
#X obj 348 249 expr 0.5*(1-$f1);
#X obj 348 289 expr $f1 + 0.25*($f1+$f2), f 14;
#X obj 503 290 expr $f2 + 0.25*($f1+$f2), f 14;
#X obj 803 123 loadbang;
#X obj 169 402 line~;
#X obj 110 436 *~;
#X obj 169 354 pack 0 30, f 5;
#X text 375 391 MUTE logic;
#X obj 90 218 line~;
#X obj 90 173 pack 0 30, f 5;
#X obj 18 242 *~;
#X obj 348 217 t f f;
#X obj 606 406 abs~;
#X obj 606 435 slop~ 0 0 0.3 0 1e+09;
#X obj 707 466 metro 100;
#X obj 606 466 snapshot~;
#X obj 606 493 rmstodb;
#X obj 606 520 moses 1;
#X msg 607 555 -100;
#X obj 660 556 - 88;
#X msg 668 147 5;
#X obj 196 93 s \$0-lvl;
#X obj 211 59 max 0;
#X obj 441 76 clip 0 100;
#X obj 441 103 / 12.5;
#X obj 441 157 s \$0-pan;
#X obj 441 130 + 1;
#X text 63 50 lvl;
#X text 628 383 VU meter;
#X text 456 213 pan "angle";
#X text 653 275 2 gains for panning, f 7;
#X text 95 242 master gain, f 6;
#X text 442 -1 pan \, 0-100;
#X text 190 7 level \, 0-100;
#X connect 0 0 2 0;
#X connect 1 0 4 0;
#X connect 2 0 40 0;
#X connect 3 0 40 0;
#X connect 4 0 0 0;
#X connect 4 1 5 0;
#X connect 5 0 3 0;
#X connect 6 1 2 1;
#X connect 7 0 14 0;
#X connect 9 0 10 1;
#X connect 10 0 11 0;
#X connect 14 0 58 0;
#X connect 16 0 17 0;
#X connect 17 0 18 0;
#X connect 22 0 70 0;
#X connect 23 0 29 0;
#X connect 24 0 26 0;
#X connect 25 0 24 0;
#X connect 27 0 28 0;
#X connect 28 0 44 0;
#X connect 29 0 71 0;
#X connect 30 0 35 0;
#X connect 31 0 9 0;
#X connect 34 0 68 0;
#X connect 35 0 37 0;
#X connect 36 0 46 0;
#X connect 37 0 38 0;
#X connect 38 0 36 0;
#X connect 39 0 1 1;
#X connect 39 0 6 0;
#X connect 41 0 1 0;
#X connect 43 0 57 0;
#X connect 43 0 8 0;
#X connect 44 0 43 0;
#X connect 45 0 59 0;
#X connect 46 0 45 0;
#X connect 46 0 8 0;
#X connect 47 0 49 1;
#X connect 47 0 50 1;
#X connect 48 0 49 0;
#X connect 48 0 50 0;
#X connect 49 0 31 0;
#X connect 50 0 54 0;
#X connect 51 0 68 0;
#X connect 51 0 62 0;
#X connect 52 0 53 1;
#X connect 53 0 11 1;
#X connect 54 0 52 0;
#X connect 56 0 58 1;
#X connect 57 0 56 0;
#X connect 58 0 10 0;
#X connect 58 0 53 0;
#X connect 58 0 60 0;
#X connect 59 0 48 0;
#X connect 59 1 47 0;
#X connect 60 0 61 0;
#X connect 61 0 63 0;
#X connect 62 0 63 0;
#X connect 63 0 64 0;
#X connect 64 0 65 0;
#X connect 65 0 66 0;
#X connect 65 1 67 0;
#X connect 66 0 21 0;
#X connect 67 0 21 0;
#X connect 68 0 42 0;
#X connect 70 0 69 0;
#X connect 71 0 72 0;
#X connect 72 0 74 0;
#X connect 74 0 73 0;
#X coords 0 0 1 1 76 85 1 30 30;
