#N canvas 283 106 1042 762 12;
#X obj 147 656 out1~;
#N canvas 0 50 450 250 (subpatch) 0;
#X array src-array 5500 float 2;
#X coords 0 1 5500 -1 200 140 1 0 0;
#X restore 824 322 graph;
#X obj 727 316 soundfiler;
#X obj 642 208 bng 15 250 50 0 empty empty empty 17 7 0 10 -262144
-1 -1;
#X msg 741 256 read -resize single-chug.aiff src-array;
#X obj 397 587 line~;
#X obj 122 606 tabread4~ src-array;
#X obj 56 228 receive pitch;
#X obj 326 485 receive rampmax 1000;
#X obj 534 539 receive 0 1000;
#N canvas 0 50 450 250 (subpatch) 0;
#X array ctrl-array 8 float 3;
#A 0 0 12 0 12 0 12 13 12;
#X coords 0 24 8 0 200 140 1 0 0;
#X restore 808 493 graph;
#X obj 402 270 tabread ctrl-array;
#X obj 212 110 bng 15 250 50 0 empty empty empty 17 7 0 10 -262144
-1 -1;
#X obj 67 123 value index;
#X obj 67 80 bng 15 250 50 0 empty empty empty 17 7 0 10 -262144 -1
-1;
#X obj 214 196 send index;
#X floatatom 300 229 5 0 0 0 - - -;
#X obj 305 198 receive index;
#X obj 214 166 expr (index + 1) % 8;
#X text 205 80 Index ticker;
#X floatatom 430 303 5 0 0 0 - - -;
#X obj 498 440 tabread4~ src-array;
#X obj 430 326 send pitch;
#X floatatom 118 279 5 0 0 0 - - -;
#X obj 72 261 / 12;
#X floatatom 185 371 5 0 0 0 - - -;
#X floatatom 98 438 5 0 0 0 - - -;
#X obj 60 396 expr pow(2 \, $f1);
#X obj 84 303 send ratioexp;
#X obj 97 339 receive ratioexp;
#X obj 121 521 phasor~;
#X obj 111 489 sig~;
#X obj 418 21 bng 15 250 50 0 empty empty empty 17 7 0 10 -262144 -1
-1;
#X msg 728 216 read -resize flute-G4-edit.wav src-array;
#X obj 123 550 *~ 5500;
#X obj 125 577 +~ 0;
#X obj 215 138 metro 1 180 permin;
#X obj 139 459 * 2;
#X obj 147 746;
#X obj 632 66 notein;
#X connect 3 0 33 0;
#X connect 4 0 2 0;
#X connect 5 0 0 0;
#X connect 6 0 0 0;
#X connect 7 0 24 0;
#X connect 8 0 5 0;
#X connect 9 0 5 0;
#X connect 11 0 20 0;
#X connect 12 0 36 0;
#X connect 14 0 13 0;
#X connect 17 0 16 0;
#X connect 17 0 11 0;
#X connect 18 0 15 0;
#X connect 20 0 22 0;
#X connect 24 0 23 0;
#X connect 24 0 28 0;
#X connect 26 0 37 0;
#X connect 27 0 26 0;
#X connect 29 0 25 0;
#X connect 29 0 27 0;
#X connect 30 0 34 0;
#X connect 31 0 30 0;
#X connect 32 0 14 0;
#X connect 32 0 12 0;
#X connect 32 0 3 0;
#X connect 33 0 4 0;
#X connect 34 0 35 0;
#X connect 35 0 6 0;
#X connect 36 0 18 0;
#X connect 37 0 31 0;
