#N canvas 0 106 1600 794 12;
#X obj 178 663 out1~;
#N canvas 0 50 450 250 (subpatch) 0;
#X array src-array 5500 float 2;
#X coords 0 1 5500 -1 200 140 1 0 0;
#X restore 823 411 graph;
#X obj 727 316 soundfiler;
#X obj 642 208 bng 15 250 50 0 empty empty empty 17 7 0 10 -262144
-1 -1;
#X msg 741 256 read -resize single-chug.aiff src-array;
#X obj 122 606 tabread4~ src-array;
#X obj 56 228 receive pitch;
#N canvas 0 50 450 250 (subpatch) 0;
#X array ctrl-array 8 float 3;
#A 0 0 12 0 12 0 12 13 12;
#X coords 0 24 8 0 200 140 1 0 0;
#X restore 807 582 graph;
#X obj 402 270 tabread ctrl-array;
#X obj 212 110 bng 15 250 50 0 empty empty empty 17 7 0 10 -262144
-1 -1;
#X obj 67 123 value index;
#X obj 67 80 bng 15 250 50 0 empty empty empty 17 7 0 10 -262144 -1
-1;
#X obj 214 196 send index;
#X floatatom 300 229 5 0 0 0 - - -;
#X obj 305 198 receive index;
#X obj 214 166 expr (index + 1) % 8;
#X text 205 80 Index ticker;
#X floatatom 430 303 5 0 0 0 - - -;
#X obj 430 326 send pitch;
#X floatatom 118 279 5 0 0 0 - - -;
#X obj 72 261 / 12;
#X floatatom 185 371 5 0 0 0 - - -;
#X floatatom 98 438 5 0 0 0 - - -;
#X obj 60 396 expr pow(2 \, $f1);
#X obj 84 303 send ratioexp;
#X obj 97 339 receive ratioexp;
#X obj 121 521 phasor~;
#X obj 111 489 sig~;
#X obj 418 21 bng 15 250 50 0 empty empty empty 17 7 0 10 -262144 -1
-1;
#X msg 728 216 read -resize flute-G4-edit.wav src-array;
#X obj 123 550 *~ 5500;
#X obj 125 577 +~ 0;
#X obj 215 138 metro 1 180 permin;
#X obj 139 459 * 2;
#X obj 291 356 bng 15 250 50 0 empty empty empty 17 7 0 10 -262144
-1 -1;
#X obj 176 632 *~;
#X floatatom 365 696 5 0 0 0 - - -;
#X obj 567 674 snapshot~;
#X obj 644 648 metro 100;
#X obj 751 375 bng 15 250 50 0 empty empty empty 17 7 0 10 -262144
-1 -1;
#X obj 346 505 f;
#X obj 334 470 receive rampms;
#X floatatom 337 610 5 0 0 0 - - -;
#X floatatom 382 533 5 0 0 0 - - -;
#X obj 333 436 send rampms;
#X obj 377 580 line 1 20;
#X msg 291 513 1;
#X obj 446 365 bng 15 250 50 0 empty empty empty 17 7 0 10 -262144
-1 -1;
#X msg 527 510 1000;
#X msg 466 486 0;
#X floatatom 340 368 5 0 0 0 - - -;
#X msg 322 403 \$1;
#X obj 484 392 send fadeout;
#X obj 516 479 receive fadeout;
#X connect 3 0 29 0;
#X connect 4 0 2 0;
#X connect 5 0 35 0;
#X connect 6 0 20 0;
#X connect 8 0 17 0;
#X connect 9 0 32 0;
#X connect 11 0 10 0;
#X connect 14 0 13 0;
#X connect 14 0 8 0;
#X connect 15 0 12 0;
#X connect 17 0 18 0;
#X connect 20 0 19 0;
#X connect 20 0 24 0;
#X connect 22 0 33 0;
#X connect 23 0 22 0;
#X connect 25 0 21 0;
#X connect 25 0 23 0;
#X connect 26 0 30 0;
#X connect 27 0 26 0;
#X connect 28 0 11 0;
#X connect 28 0 9 0;
#X connect 28 0 3 0;
#X connect 28 0 39 0;
#X connect 29 0 4 0;
#X connect 30 0 31 0;
#X connect 31 0 5 0;
#X connect 32 0 15 0;
#X connect 33 0 27 0;
#X connect 34 0 46 0;
#X connect 34 0 50 0;
#X connect 35 0 0 0;
#X connect 35 0 37 0;
#X connect 37 0 36 0;
#X connect 38 0 37 0;
#X connect 39 0 38 0;
#X connect 40 0 43 0;
#X connect 40 0 45 1;
#X connect 41 0 40 0;
#X connect 45 0 35 1;
#X connect 45 0 42 0;
#X connect 46 0 45 0;
#X connect 47 0 52 0;
#X connect 47 0 49 0;
#X connect 48 0 45 1;
#X connect 49 0 45 0;
#X connect 50 0 51 0;
#X connect 51 0 44 0;
#X connect 53 0 48 0;
