#N canvas 898 207 781 577 12;
#X obj 307 73 bng 15 250 50 0 empty empty empty 17 7 0 10 -262144 -1
-1;
#X obj 325 162 subpatch;
#X obj 281 304 out1~;
#X text 263 70 Start;
#X text 412 116 Fade out;
#X obj 433 137 bng 15 250 50 0 empty empty empty 17 7 0 10 -262144
-1 -1;
#X msg 327 104 2000;
#X text 332 79 Fade in (milliseconds);
#X connect 0 0 1 0;
#X connect 1 0 2 0;
#X connect 5 0 1 2;
#X connect 6 0 1 1;
