#N canvas 795 289 1282 739 12;
#X obj 727 316 soundfiler;
#X obj 642 208 bng 15 250 50 0 empty empty empty 17 7 0 10 -262144
-1 -1;
#X msg 741 256 read -resize single-chug.aiff src-array;
#X obj 122 606 tabread4~ src-array;
#X obj 402 270 tabread ctrl-array;
#X obj 212 110 bng 15 250 50 0 empty empty empty 17 7 0 10 -262144
-1 -1;
#X obj 67 123 value index;
#X obj 67 80 bng 15 250 50 0 empty empty empty 17 7 0 10 -262144 -1
-1;
#X obj 214 196 send index;
#X floatatom 300 229 5 0 0 0 - - -;
#X obj 305 198 receive index;
#X obj 214 166 expr (index + 1) % 8;
#X text 205 80 Index ticker;
#X floatatom 430 303 5 0 0 0 - - -;
#X floatatom 142 310 5 0 0 0 - - -;
#X obj 96 292 / 12;
#X floatatom 185 371 5 0 0 0 - - -;
#X floatatom 98 438 5 0 0 0 - - -;
#X obj 60 396 expr pow(2 \, $f1);
#X obj 121 521 phasor~;
#X obj 111 489 sig~;
#X obj 406 58 bng 15 250 50 0 empty empty empty 17 7 0 10 -262144 -1
-1;
#X msg 728 216 read -resize flute-G4-edit.wav src-array;
#X obj 123 550 *~ 5500;
#X obj 125 577 +~ 0;
#X obj 215 138 metro 1 180 permin;
#X obj 140 460 * 2;
#X obj 176 632 *~;
#X floatatom 365 696 5 0 0 0 - - -;
#X obj 557 656 snapshot~;
#X obj 622 585 metro 100;
#X obj 751 375 bng 15 250 50 0 empty empty empty 17 7 0 10 -262144
-1 -1;
#X obj 346 505 f;
#X floatatom 379 622 5 0 0 0 - - -;
#X floatatom 382 533 5 0 0 0 - - -;
#X obj 377 580 line 1 20;
#X obj 446 365 bng 15 250 50 0 empty empty empty 17 7 0 10 -262144
-1 -1;
#X msg 527 510 1000;
#X msg 466 486 0;
#X floatatom 340 368 5 0 0 0 - - -;
#X msg 322 403 \$1;
#X obj 153 686 outlet~;
#X obj 381 21 inlet;
#X obj 444 19 inlet;
#X obj 493 44 inlet;
#X msg 319 549 1;
#X connect 1 0 22 0;
#X connect 2 0 0 0;
#X connect 3 0 27 0;
#X connect 4 0 13 0;
#X connect 5 0 25 0;
#X connect 7 0 6 0;
#X connect 10 0 9 0;
#X connect 10 0 4 0;
#X connect 11 0 8 0;
#X connect 13 0 15 0;
#X connect 15 0 14 0;
#X connect 15 0 18 0;
#X connect 17 0 26 0;
#X connect 18 0 17 0;
#X connect 19 0 23 0;
#X connect 20 0 19 0;
#X connect 21 0 7 0;
#X connect 21 0 5 0;
#X connect 21 0 1 0;
#X connect 21 0 31 0;
#X connect 22 0 2 0;
#X connect 23 0 24 0;
#X connect 24 0 3 0;
#X connect 25 0 11 0;
#X connect 26 0 20 0;
#X connect 27 0 29 0;
#X connect 27 0 41 0;
#X connect 29 0 28 0;
#X connect 30 0 29 0;
#X connect 31 0 30 0;
#X connect 32 0 34 0;
#X connect 32 0 35 1;
#X connect 35 0 27 1;
#X connect 35 0 33 0;
#X connect 36 0 38 0;
#X connect 36 0 37 0;
#X connect 37 0 35 1;
#X connect 38 0 35 0;
#X connect 39 0 40 0;
#X connect 40 0 45 0;
#X connect 40 0 32 0;
#X connect 42 0 21 0;
#X connect 43 0 39 0;
#X connect 44 0 36 0;
#X connect 45 0 35 0;
